<svg xmlns="http://www.w3.org/2000/svg" xmlns:xlink="http://www.w3.org/1999/xlink" width="800" height="56" viewBox="0 0 800 56" class="WaveDrom"><g transform="translate(0.5,0.5)" text-anchor="middle" font-size="14" font-family="sans-serif" font-weight="normal"><g transform="translate(4,21)"><g stroke="black" stroke-width="1" stroke-linecap="round"><line x2="715"></line><line y2="31"></line><line x2="715" y1="31" y2="31"></line><line x1="715" x2="715" y2="31"></line><line x1="660" x2="660" y2="31"></line><line x1="605" x2="605" y2="31"></line><line x1="550" x2="550" y2="31"></line><line x1="495" x2="495" y2="31"></line><line x1="440" x2="440" y2="31"></line><line x1="385" x2="385" y2="31"></line><line x1="330" x2="330" y2="31"></line><line x1="275" x2="275" y2="31"></line><line x1="220" x2="220" y2="31"></line><line x1="165" x2="165" y2="31"></line><line x1="110" x2="110" y2="31"></line><line x1="55" x2="55" y2="31"></line></g><g><g><rect x="660" width="55" height="31" field="0" style="fill-opacity:0.1;fill:hsl(170,100%,50%)"></rect><rect x="605" width="55" height="31" field="a" style="fill-opacity:0.1"></rect><rect x="550" width="55" height="31" field="b" style="fill-opacity:0.1"></rect><rect x="495" width="55" height="31" field="c" style="fill-opacity:0.1"></rect><rect x="440" width="55" height="31" field="d" style="fill-opacity:0.1"></rect><rect x="385" width="55" height="31" field="e" style="fill-opacity:0.1"></rect><rect x="330" width="55" height="31" field="f" style="fill-opacity:0.1"></rect><rect x="275" width="55" height="31" field="g" style="fill-opacity:0.1"></rect><rect x="220" width="55" height="31" field="h" style="fill-opacity:0.1"></rect><rect x="165" width="55" height="31" field="i" style="fill-opacity:0.1"></rect><rect x="110" width="55" height="31" field="j" style="fill-opacity:0.1"></rect><rect x="55" width="55" height="31" field="k" style="fill-opacity:0.1"></rect><rect width="55" height="31" field="l" style="fill-opacity:0.1"></rect></g><g transform="translate(28,-11)"><g transform="translate(660)"><text y="6">0</text></g><g transform="translate(605)"><text y="6">1</text></g><g transform="translate(550)"><text y="6">2</text></g><g transform="translate(495)"><text y="6">3</text></g><g transform="translate(440)"><text y="6">4</text></g><g transform="translate(385)"><text y="6">5</text></g><g transform="translate(330)"><text y="6">6</text></g><g transform="translate(275)"><text y="6">7</text></g><g transform="translate(220)"><text y="6">8</text></g><g transform="translate(165)"><text y="6">9</text></g><g transform="translate(110)"><text y="6">10</text></g><g transform="translate(55)"><text y="6">11</text></g><g transform="translate(0)"><text y="6">12</text></g></g><g transform="translate(28,15)"><g transform="translate(660)"><text y="6"><tspan>0</tspan></text></g><g transform="translate(605)"><text y="6"><tspan>a</tspan></text></g><g transform="translate(550)"><text y="6"><tspan>b</tspan></text></g><g transform="translate(495)"><text y="6"><tspan>c</tspan></text></g><g transform="translate(440)"><text y="6"><tspan>d</tspan></text></g><g transform="translate(385)"><text y="6"><tspan>e</tspan></text></g><g transform="translate(330)"><text y="6"><tspan>f</tspan></text></g><g transform="translate(275)"><text y="6"><tspan>g</tspan></text></g><g transform="translate(220)"><text y="6"><tspan>h</tspan></text></g><g transform="translate(165)"><text y="6"><tspan>i</tspan></text></g><g transform="translate(110)"><text y="6"><tspan>j</tspan></text></g><g transform="translate(55)"><text y="6"><tspan>k</tspan></text></g><g transform="translate(0)"><text y="6"><tspan>l</tspan></text></g></g><g transform="translate(28,39)"></g></g><g text-anchor="start"><g transform="translate(719,16)"><text y="6"><tspan>Imm12</tspan></text></g></g></g></g></svg>